<?xml version="1.0" encoding="utf-8"?>
<!-- Generator: Adobe Illustrator 25.0.0, SVG Export Plug-In . SVG Version: 6.00 Build 0)  -->
<svg version="1.1" id="Capa_1" xmlns="http://www.w3.org/2000/svg" xmlns:xlink="http://www.w3.org/1999/xlink" x="0px" y="0px"
	 viewBox="0 0 233.8 301.4" style="enable-background:new 0 0 233.8 301.4;" xml:space="preserve">
<style type="text/css">
	.st0{fill:none;}
	.st1{fill:#FFFFFF;}
	.st2{fill:none;stroke:#FFFFFF;stroke-width:6;stroke-miterlimit:10;}
</style>
<g>
	<path class="st0" d="M123.2,214.8L123.2,214.8C123.2,214.8,123.2,214.8,123.2,214.8L123.2,214.8z"/>
	<path class="st0" d="M117.7,222.8L117.7,222.8C117.7,222.8,117.7,222.8,117.7,222.8c-0.1,0-0.2,0-0.3,0c-12.9,0-23.2,1.7-23.2,1.7
		c4.5,7.4,14,11.2,23.5,11.1c9.5,0.1,19.1-3.7,23.5-11.1c0,0-10.3-1.7-23.2-1.7C117.9,222.8,117.8,222.8,117.7,222.8z"/>
	<path class="st0" d="M83.2,126.6c-4-2.3-10.3-6.1-10.3-6.1s0,15.8,17.3,8.5C90.2,129,88.2,129.5,83.2,126.6z"/>
	<path class="st0" d="M162.1,73.4c0,0,12.9-22,32.8-38.3c0,0,3.3,18.6-1.1,40.7l11.4,12.5c0,0,5.9-55.7-5.3-72.5
		c0,0-34.3,32.3-47,50.9c0,0-13.9-4.3-34.9-4.3c-0.1,0-0.2,0-0.3,0c0,0,0,0,0,0c0,0,0,0,0,0c-0.1,0-0.2,0-0.3,0
		c-21,0-34.9,4.3-34.9,4.3c-12.8-18.6-47-50.9-47-50.9c-11.1,16.8-5.3,72.5-5.3,72.5l11.4-12.5c-4.4-22.1-1.1-40.7-1.1-40.7
		c19.9,16.3,32.8,38.3,32.8,38.3c-6.7,4.7-37.5,37.1-41.9,50.2c-3.5,10.3-5.1,41.3-5.1,41.3c4.9-17.6,13.2-31.6,13.2-31.6
		c-4,67,13.2,80.4,13.2,80.4c-4.2-20.5,0.2-47.2,0.2-47.2c6.9,55.1,32.6,67.4,32.6,67.4c-1.4-3.6-10.5-8.7-12.1-27.6
		s12-45.2,12-45.2s-6.5,25.5-3.9,40.3c1.2,7.1,8.3,12.4,14.6,14s16.2-0.8,16.2-0.8l0.6-6.1c0,0-5.1,0.4-9.3-1
		c-4.2-1.4-8.3-6.5-8.9-14.4c-0.6-7.9,5.3-21.9,5.3-21.9l1.6,10.9c4.2-4.9,15.9-4.2,15.9-4.2s0.1,0,0.3,0l0,0c0,0,0,0,0,0
		c0,0,0,0,0,0l0,0c0.2,0,0.3,0,0.3,0s11.7-0.6,15.9,4.2l1.6-10.9c0,0,5.9,14,5.3,21.9c-0.4,5.7-2.6,9.8-5.4,12.3
		c0.1-0.1,0.2-0.2,0.3-0.3c1.7-1.9-1.3,3.8-1.5,4.4c-1.5,5-9.5,4.8-9.9,5.2c0,0-0.6,0-0.6,0c-0.1,0-0.1,0-0.1,0
		c1.7,0.4,10.2,2.2,15.9,0.7c6.3-1.6,13.3-6.9,14.6-14c2.6-14.8-3.9-40.3-3.9-40.3s13.6,26.3,12,45.2S151.4,230.4,150,234
		c0,0,25.7-12.4,32.6-67.4c0,0,4.5,26.7,0.2,47.2c0,0,17.2-13.4,13.2-80.4c0,0,8.3,14,13.2,31.6c0,0-1.6-31-5.1-41.3
		C199.6,110.5,168.8,78.1,162.1,73.4z M103,126.6c-8.1,16.5-15.5,31.6-15.5,31.6l1.4-19.9c0,0-25.7,6.5-23.9-22.5
		c0,0-5.5-3.9-11.1-1c0,0,4.6-8.4,17.1-4.5s20.5,12.2,26.6,10.2c5.3-1.7,7.7-10.6,2.6-16.9C100.2,103.6,111.1,110.1,103,126.6z
		 M170.4,115.7c1.8,29-23.9,22.5-23.9,22.5l1.4,19.9c0,0-7.4-15.1-15.5-31.6s2.8-22.9,2.8-22.9c-5.1,6.2-2.7,15.2,2.6,16.9
		c6.1,2,14-6.3,26.6-10.2s17.1,4.5,17.1,4.5C175.9,111.8,170.4,115.7,170.4,115.7z"/>
	<path class="st0" d="M145.2,129c17.3,7.3,17.3-8.5,17.3-8.5s-6.3,3.7-10.3,6.1C147.2,129.5,145.2,129,145.2,129z"/>
	<path class="st0" d="M117.7,222.8L117.7,222.8C117.7,222.8,117.7,222.8,117.7,222.8c-0.1,0-0.2,0-0.3,0c-12.9,0-23.2,1.7-23.2,1.7
		c4.5,7.4,14,11.2,23.5,11.1c9.5,0.1,19.1-3.7,23.5-11.1c0,0-10.3-1.7-23.2-1.7C117.9,222.8,117.8,222.8,117.7,222.8z"/>
	<path class="st0" d="M162.1,73.4c0,0,12.9-22,32.8-38.3c0,0,3.3,18.6-1.1,40.7l11.4,12.5c0,0,5.9-55.7-5.3-72.5
		c0,0-34.3,32.3-47,50.9c0,0-13.9-4.3-34.9-4.3c-0.1,0-0.2,0-0.3,0c0,0,0,0,0,0c0,0,0,0,0,0c-0.1,0-0.2,0-0.3,0
		c-21,0-34.9,4.3-34.9,4.3c-12.8-18.6-47-50.9-47-50.9c-11.1,16.8-5.3,72.5-5.3,72.5l11.4-12.5c-4.4-22.1-1.1-40.7-1.1-40.7
		c19.9,16.3,32.8,38.3,32.8,38.3c-6.7,4.7-37.5,37.1-41.9,50.2c-3.5,10.3-5.1,41.3-5.1,41.3c4.9-17.6,13.2-31.6,13.2-31.6
		c-4,67,13.2,80.4,13.2,80.4c-4.2-20.5,0.2-47.2,0.2-47.2c6.9,55.1,32.6,67.4,32.6,67.4c-1.4-3.6-10.5-8.7-12.1-27.6
		s12-45.2,12-45.2s-6.5,25.5-3.9,40.3c1.2,7.1,8.3,12.4,14.6,14c5.5,1.4,13.9-0.3,15.8-0.7c0,0,0,0,0,0c0,0-0.6,0-0.6,0
		c-0.4-0.4-8.4-0.1-9.9-5.2c-0.2-0.6-3.2-6.3-1.5-4.4c0.1,0.1,0.1,0.1,0.2,0.2c-2.7-2.5-4.9-6.6-5.3-12.2
		c-0.6-7.9,5.3-21.9,5.3-21.9l1.6,10.9c4.2-4.9,15.9-4.2,15.9-4.2s0.1,0,0.3,0l0,0c0,0,0,0,0,0c0,0,0,0,0,0l0,0c0.2,0,0.3,0,0.3,0
		s11.7-0.6,15.9,4.2l1.6-10.9c0,0,5.9,14,5.3,21.9c-0.4,5.7-2.6,9.8-5.4,12.3c-0.9,0.5-2.6,0.6-4.2,0.6c-2.1,0-3.1-1.6-3.1-2.4
		s1-1.6,2.6-1.6c2.5,0,2.8-1.6,2.8-2.3s-0.4-1.7-1.9-1.9c-2.9-0.5-5.1,0.3-7.1,2.4c-4.2,4.4-3.1,10.2-2.9,12
		c0.2,1.5,0.4,1.9,1.3,2.2c0.1,0.1,0.2,0.1,0.4,0.1l0,0h0c0,0,0,0,0,0c0.1,0,0.2,0.1,0.3,0.1c1.7,0.4,10.2,2.2,15.9,0.7
		c6.3-1.6,13.3-6.9,14.6-14c2.6-14.8-3.9-40.3-3.9-40.3s13.6,26.3,12,45.2S151.4,230.4,150,234c0,0,25.7-12.4,32.6-67.4
		c0,0,4.5,26.7,0.2,47.2c0,0,17.2-13.4,13.2-80.4c0,0,8.3,14,13.2,31.6c0,0-1.6-31-5.1-41.3C199.6,110.5,168.8,78.1,162.1,73.4z"/>
	<path class="st1" d="M83.2,126.6c-4-2.3-10.3-6.1-10.3-6.1s0,15.8,17.3,8.5C90.2,129,88.2,129.5,83.2,126.6z"/>
	<path class="st0" d="M100.2,103.6c5.1,6.2,2.7,15.2-2.6,16.9c-6.1,2-14-6.3-26.6-10.2s-17.1,4.5-17.1,4.5c5.7-2.9,11.1,1,11.1,1
		c-1.8,29,23.9,22.5,23.9,22.5l-1.4,19.9c0,0,7.4-15.1,15.5-31.6C111.1,110.1,100.2,103.6,100.2,103.6z"/>
	<path class="st1" d="M209.1,165c0,0-1.6-31-5.1-41.3c-4.5-13.2-35.2-45.6-41.9-50.2c0,0,12.9-22,32.8-38.3c0,0,3.3,18.6-1.1,40.7
		l11.4,12.5c0,0,5.9-55.7-5.3-72.5c0,0-34.3,32.3-47,50.9c0,0-13.9-4.3-34.9-4.3c-0.1,0-0.2,0-0.3,0c0,0,0,0,0,0c0,0,0,0,0,0
		c-0.1,0-0.2,0-0.3,0c-21,0-34.9,4.3-34.9,4.3c-12.8-18.6-47-50.9-47-50.9c-11.1,16.8-5.3,72.5-5.3,72.5l11.4-12.5
		c-4.4-22.1-1.1-40.7-1.1-40.7c19.9,16.3,32.8,38.3,32.8,38.3c-6.7,4.7-37.5,37.1-41.9,50.2c-3.5,10.3-5.1,41.3-5.1,41.3
		c4.9-17.6,13.2-31.6,13.2-31.6c-4,67,13.2,80.4,13.2,80.4c-4.2-20.5,0.2-47.2,0.2-47.2c6.9,55.1,32.6,67.4,32.6,67.4
		c-1.4-3.6-10.5-8.7-12.1-27.6s12-39,12-39s-6.5,19.3-3.9,34.2c1.2,7.1,8.3,12.4,14.6,14c5.5,1.4,13.9-0.3,15.8-0.7
		c0.2,0,0.2,0,0.4-0.1c0.2-0.1,0.3-0.1,0.4-0.2c0.8-0.4,1.1-0.7,1.3-2.2c0.2-1.8,1.3-7.6-2.9-12c-2-2.1-4.2-2.9-7.1-2.4
		c-1.5,0.2-1.9,1.2-1.9,1.9c0,0.7,0.3,2.3,2.8,2.3c1.7,0,2.6,0.7,2.6,1.6c0,0.8-1,2.4-3.1,2.4c-1.8,0-3.5,0-4.4-0.7
		c-2.7-2.5-4.9-6.6-5.3-12.2c-0.6-7.9,5.3-21.9,5.3-21.9l1.6,10.9c4.2-4.9,15.9-4.2,15.9-4.2s0.1,0,0.3,0l0,0c0,0,0,0,0,0
		c0,0,0,0,0,0l0,0c0.2,0,0.3,0,0.3,0s11.7-0.6,15.9,4.2l1.6-10.9c0,0,5.9,14,5.3,21.9c-0.4,5.7-2.6,9.8-5.4,12.3
		c-0.9,0.5-2.6,0.6-4.2,0.6c-2.1,0-3.1-1.6-3.1-2.4s1-1.6,2.6-1.6c2.5,0,2.8-1.6,2.8-2.3c0-0.7-0.4-1.7-1.9-1.9
		c-2.9-0.5-5.1,0.3-7.1,2.4c-4.2,4.4-3.1,10.2-2.9,12c0.2,1.5,0.4,1.9,1.3,2.2c0.1,0.1,0.2,0.1,0.4,0.1l0,0h0c0,0,0,0,0,0
		c0.1,0,0.2,0.1,0.3,0.1c1.7,0.4,10.2,2.2,15.9,0.7c6.3-1.6,13.3-6.9,14.6-14c2.6-14.8-3.9-34.2-3.9-34.2s13.6,20.2,12,39
		S151.4,230.4,150,234c0,0,25.7-12.4,32.6-67.4c0,0,4.5,26.7,0.2,47.2c0,0,17.2-13.4,13.2-80.4C195.9,133.4,204.2,147.3,209.1,165z
		 M103,126.6c-8.1,16.5-15.5,31.6-15.5,31.6l1.4-19.9c0,0-25.7,6.5-23.9-22.5c0,0-5.5-3.9-11.1-1c0,0,4.6-8.4,17.1-4.5
		s20.5,12.2,26.6,10.2c5.3-1.7,7.7-10.6,2.6-16.9C100.2,103.6,111.1,110.1,103,126.6z M170.4,115.7c1.8,29-23.9,22.5-23.9,22.5
		l1.4,19.9c0,0-7.4-15.1-15.5-31.6c-8.1-16.5,2.8-22.9,2.8-22.9c-5.1,6.2-2.7,15.2,2.6,16.9c6.1,2,14-6.3,26.6-10.2
		s17.1,4.5,17.1,4.5C175.9,111.8,170.4,115.7,170.4,115.7z"/>
	<path class="st1" d="M145.2,129c17.3,7.3,17.3-8.5,17.3-8.5s-6.3,3.7-10.3,6.1C147.2,129.5,145.2,129,145.2,129z"/>
	<path class="st2" d="M218.7,101c0-15.4,2.7-36.4,1.3-52.5c-1.4-16.1-7.5-42.3-22.2-42.7c-14.8-0.4-57,42.7-57,42.7
		c-4.8-1.8-14-2.7-23.1-2.7c0,0,0,0,0,0h0c-9.1,0-18.2,0.9-23.1,2.7c0,0-42.3-43.1-57-42.7C22.8,6.2,16.7,32.3,15.3,48.5
		s1.3,37.1,1.3,52.5c0,17.9-12.5,41.9-6.3,91.3l6.1-8.3c0,0,5.3,27.4,15.9,45.2l2.8-14.2c0,0,3.1,13.8,25.6,43.1l1.8-13.8
		c0,0,18.1,30,54.8,51.3l0.3,0.2l0.3-0.2c36.7-21.2,54.8-51.2,54.8-51.2l1.8,13.8c22.5-30.1,25.6-43.1,25.6-43.1l2.8,14.2
		c10.6-17.9,15.9-45.2,15.9-45.2l6.1,8.3C231.2,142.9,218.7,118.9,218.7,101z"/>
	<path class="st1" d="M117.7,235.6c-9.5,0.1-19.1-3.7-23.5-11.1c0,0,10.3-1.7,23.2-1.7c0.1,0,0.2,0,0.3,0c0,0,0,0,0,0c0,0,0,0,0,0
		c0.1,0,0.2,0,0.3,0c12.9,0,23.2,1.7,23.2,1.7C136.8,232,127.2,235.7,117.7,235.6z"/>
</g>
</svg>
