<?xml version="1.0" encoding="utf-8"?>
<!-- Generator: Adobe Illustrator 25.0.0, SVG Export Plug-In . SVG Version: 6.00 Build 0)  -->
<svg version="1.1" id="Capa_1" xmlns="http://www.w3.org/2000/svg" xmlns:xlink="http://www.w3.org/1999/xlink" x="0px" y="0px"
	 viewBox="0 0 235.2 303.7" style="enable-background:new 0 0 235.2 303.7;" xml:space="preserve">
<style type="text/css">
	.st0{fill:none;}
</style>
<path class="st0" d="M122.9,218.3L122.9,218.3C122.9,218.3,122.9,218.3,122.9,218.3L122.9,218.3z"/>
<path class="st0" d="M117.4,226.3L117.4,226.3C117.4,226.3,117.4,226.3,117.4,226.3c-0.1,0-0.2,0-0.3,0c-12.9,0-23.2,1.7-23.2,1.7
	c4.5,7.4,14,11.2,23.5,11.1c9.5,0.1,19.1-3.7,23.5-11.1c0,0-10.3-1.7-23.2-1.7C117.6,226.3,117.5,226.3,117.4,226.3z"/>
<path class="st0" d="M82.9,130.1c-4-2.3-10.3-6.1-10.3-6.1s0,15.8,17.3,8.5C89.9,132.5,87.9,133,82.9,130.1z"/>
<path class="st0" d="M161.8,76.9c0,0,12.9-22,32.8-38.3c0,0,3.3,18.6-1.1,40.7l11.4,12.5c0,0,5.9-55.7-5.3-72.5
	c0,0-34.3,32.3-47,50.9c0,0-13.9-4.3-34.9-4.3c-0.1,0-0.2,0-0.3,0c0,0,0,0,0,0c0,0,0,0,0,0c-0.1,0-0.2,0-0.3,0
	c-21,0-34.9,4.3-34.9,4.3c-12.8-18.6-47-50.9-47-50.9c-11.1,16.8-5.3,72.5-5.3,72.5l11.4-12.5c-4.4-22.1-1.1-40.7-1.1-40.7
	C60,54.9,72.9,76.9,72.9,76.9C66.3,81.6,35.5,114,31,127.1c-3.5,10.3-5.1,41.3-5.1,41.3c4.9-17.6,13.2-31.6,13.2-31.6
	c-4,67,13.2,80.4,13.2,80.4c-4.2-20.5,0.2-47.2,0.2-47.2c6.9,55.1,32.6,67.4,32.6,67.4c-1.4-3.6-10.5-8.7-12.1-27.6s12-45.2,12-45.2
	s-6.5,25.5-3.9,40.3c1.2,7.1,8.3,12.4,14.6,14s16.2-0.8,16.2-0.8l0.6-6.1c0,0-5.1,0.4-9.3-1c-4.2-1.4-8.3-6.5-8.9-14.4
	c-0.6-7.9,5.3-21.9,5.3-21.9l1.6,10.9c4.2-4.9,15.9-4.2,15.9-4.2s0.1,0,0.3,0l0,0c0,0,0,0,0,0c0,0,0,0,0,0l0,0c0.2,0,0.3,0,0.3,0
	s11.7-0.6,15.9,4.2l1.6-10.9c0,0,5.9,14,5.3,21.9c-0.4,5.7-2.6,9.8-5.4,12.3c0.1-0.1,0.2-0.2,0.3-0.3c1.7-1.9-1.3,3.8-1.5,4.4
	c-1.5,5-9.5,4.8-9.9,5.2c0,0-0.6,0-0.6,0c-0.1,0-0.1,0-0.1,0c1.7,0.4,10.2,2.2,15.9,0.7c6.3-1.6,13.3-6.9,14.6-14
	c2.6-14.8-3.9-40.3-3.9-40.3s13.6,26.3,12,45.2s-10.7,23.9-12.1,27.6c0,0,25.7-12.4,32.6-67.4c0,0,4.5,26.7,0.2,47.2
	c0,0,17.2-13.4,13.2-80.4c0,0,8.3,14,13.2,31.6c0,0-1.6-31-5.1-41.3C199.2,114,168.5,81.6,161.8,76.9z M102.6,130.1
	c-8.1,16.5-15.5,31.6-15.5,31.6l1.4-19.9c0,0-25.7,6.5-23.9-22.5c0,0-5.5-3.9-11.1-1c0,0,4.6-8.4,17.1-4.5S91.1,126,97.2,124
	c5.3-1.7,7.7-10.6,2.6-16.9C99.8,107.1,110.8,113.6,102.6,130.1z M170.1,119.2c1.8,29-23.9,22.5-23.9,22.5l1.4,19.9
	c0,0-7.4-15.1-15.5-31.6s2.8-22.9,2.8-22.9c-5.1,6.2-2.7,15.2,2.6,16.9c6.1,2,14-6.3,26.6-10.2s17.1,4.5,17.1,4.5
	C175.5,115.3,170.1,119.2,170.1,119.2z"/>
<path class="st0" d="M144.8,132.5c17.3,7.3,17.3-8.5,17.3-8.5s-6.3,3.7-10.3,6.1C146.9,133,144.8,132.5,144.8,132.5z"/>
<path class="st0" d="M117.4,226.3L117.4,226.3C117.4,226.3,117.4,226.3,117.4,226.3c-0.1,0-0.2,0-0.3,0c-12.9,0-23.2,1.7-23.2,1.7
	c4.5,7.4,14,11.2,23.5,11.1c9.5,0.1,19.1-3.7,23.5-11.1c0,0-10.3-1.7-23.2-1.7C117.6,226.3,117.5,226.3,117.4,226.3z"/>
<path class="st0" d="M161.8,76.9c0,0,12.9-22,32.8-38.3c0,0,3.3,18.6-1.1,40.7l11.4,12.5c0,0,5.9-55.7-5.3-72.5
	c0,0-34.3,32.3-47,50.9c0,0-13.9-4.3-34.9-4.3c-0.1,0-0.2,0-0.3,0c0,0,0,0,0,0c0,0,0,0,0,0c-0.1,0-0.2,0-0.3,0
	c-21,0-34.9,4.3-34.9,4.3c-12.8-18.6-47-50.9-47-50.9c-11.1,16.8-5.3,72.5-5.3,72.5l11.4-12.5c-4.4-22.1-1.1-40.7-1.1-40.7
	C60,54.9,72.9,76.9,72.9,76.9C66.3,81.6,35.5,114,31,127.1c-3.5,10.3-5.1,41.3-5.1,41.3c4.9-17.6,13.2-31.6,13.2-31.6
	c-4,67,13.2,80.4,13.2,80.4c-4.2-20.5,0.2-47.2,0.2-47.2c6.9,55.1,32.6,67.4,32.6,67.4c-1.4-3.6-10.5-8.7-12.1-27.6s12-45.2,12-45.2
	s-6.5,25.5-3.9,40.3c1.2,7.1,8.3,12.4,14.6,14c5.5,1.4,13.9-0.3,15.8-0.7c0,0,0,0,0,0c0,0-0.6,0-0.6,0c-0.4-0.4-8.4-0.1-9.9-5.2
	c-0.2-0.6-3.2-6.3-1.5-4.4c0.1,0.1,0.1,0.1,0.2,0.2c-2.7-2.5-4.9-6.6-5.3-12.2c-0.6-7.9,5.3-21.9,5.3-21.9l1.6,10.9
	c4.2-4.9,15.9-4.2,15.9-4.2s0.1,0,0.3,0l0,0c0,0,0,0,0,0c0,0,0,0,0,0l0,0c0.2,0,0.3,0,0.3,0s11.7-0.6,15.9,4.2l1.6-10.9
	c0,0,5.9,14,5.3,21.9c-0.4,5.7-2.6,9.8-5.4,12.3c-0.9,0.5-2.6,0.6-4.2,0.6c-2.1,0-3.1-1.6-3.1-2.4s1-1.6,2.6-1.6
	c2.5,0,2.8-1.6,2.8-2.3s-0.4-1.7-1.9-1.9c-2.9-0.5-5.1,0.3-7.1,2.4c-4.2,4.4-3.1,10.2-2.9,12c0.2,1.5,0.4,1.9,1.3,2.2
	c0.1,0.1,0.2,0.1,0.4,0.1l0,0h0c0,0,0,0,0,0c0.1,0,0.2,0.1,0.3,0.1c1.7,0.4,10.2,2.2,15.9,0.7c6.3-1.6,13.3-6.9,14.6-14
	c2.6-14.8-3.9-40.3-3.9-40.3s13.6,26.3,12,45.2s-10.7,23.9-12.1,27.6c0,0,25.7-12.4,32.6-67.4c0,0,4.5,26.7,0.2,47.2
	c0,0,17.2-13.4,13.2-80.4c0,0,8.3,14,13.2,31.6c0,0-1.6-31-5.1-41.3C199.2,114,168.5,81.6,161.8,76.9z"/>
<g>
	<path d="M100.2,104.5c5.1,6.2,2.7,15.2-2.6,16.9c-6.1,2-14-6.3-26.6-10.2c-12.6-3.9-17.1,4.5-17.1,4.5c5.7-2.9,11.1,1,11.1,1
		c-1.8,29,23.9,22.5,23.9,22.5l-1.4,19.9c0,0,7.4-15.1,15.5-31.6S100.2,104.5,100.2,104.5z M72.9,121.4c0,0,6.3,3.7,10.3,6.1
		c5,2.9,7,2.4,7,2.4C72.9,137.2,72.9,121.4,72.9,121.4z"/>
	<path d="M164.5,111.2c-12.6,4-20.5,12.2-26.6,10.2c-5.3-1.7-7.7-10.6-2.6-16.9c0,0-10.9,6.4-2.8,22.9s15.5,31.6,15.5,31.6
		l-1.4-19.9c0,0,25.7,6.5,23.9-22.5c0,0,5.5-3.9,11.1-1C181.6,115.6,177,107.2,164.5,111.2z M145.2,129.9c0,0,2,0.5,7-2.4
		c4-2.3,10.3-6.1,10.3-6.1S162.5,137.2,145.2,129.9z"/>
	<path d="M221.7,100.4c0-15.9,2.8-37.5,1.4-54.1c-1.4-16.6-7.7-43.5-22.9-44c-15.2-0.4-58.7,44-58.7,44c-5-1.8-14.4-2.7-23.8-2.7
		c0,0,0,0,0,0h0c-9.4,0-18.8,0.9-23.8,2.7c0,0-43.5-44.4-58.7-44C20,2.8,13.8,29.7,12.3,46.3s1.4,38.2,1.4,54.1
		c0,18.4-12.9,43.1-6.5,94l6.3-8.5c0,0,5.5,28.1,16.4,46.6l2.8-14.6c0,0,3.2,14.2,26.3,44.4l1.8-14.2c0,0,18.6,30.9,56.4,52.8
		l0.3,0.2l0.3-0.2c37.8-21.9,56.4-52.8,56.4-52.8l1.8,14.2c23.2-30.9,26.3-44.4,26.3-44.4l2.8,14.6c10.9-18.4,16.4-46.6,16.4-46.6
		l6.3,8.5C234.6,143.6,221.7,118.9,221.7,100.4z M117.7,236.5c-9.5,0.1-19.1-3.7-23.5-11.1c0,0,10.3-1.7,23.2-1.7c0.1,0,0.2,0,0.3,0
		c0,0,0,0,0,0c0,0,0,0,0,0c0.1,0,0.2,0,0.3,0c12.9,0,23.2,1.7,23.2,1.7C136.8,232.9,127.2,236.6,117.7,236.5z M196,134.2
		c4,67-13.2,80.4-13.2,80.4c4.2-20.5-0.2-47.2-0.2-47.2c-6.9,55.1-32.6,67.4-32.6,67.4c1.4-3.6,10.5-8.7,12.1-27.6s-12-39-12-39
		s6.5,19.3,3.9,34.2c-1.2,7.1-8.3,12.4-14.6,14c-5.6,1.5-14.2-0.4-15.9-0.7c-0.1,0-0.2,0-0.3-0.1c0,0,0,0,0,0h0l0,0
		c-0.2-0.1-0.3-0.1-0.4-0.1c-0.8-0.4-1.1-0.7-1.3-2.2c-0.2-1.8-1.3-7.6,2.9-12c2-2.1,4.2-2.9,7.1-2.4c1.5,0.2,1.9,1.2,1.9,1.9
		s-0.3,2.3-2.8,2.3c-1.7,0-2.6,0.7-2.6,1.6c0,0.8,1,2.4,3.1,2.4c1.7,0,3.3,0,4.2-0.6c2.8-2.4,5-6.6,5.4-12.3
		c0.6-7.9-5.3-21.9-5.3-21.9l-1.6,10.9c-4.2-4.9-15.9-4.2-15.9-4.2s-0.1,0-0.3,0l0,0c0,0,0,0,0,0c0,0,0,0,0,0l0,0
		c-0.2,0-0.3,0-0.3,0s-11.7-0.6-15.9,4.2l-1.6-10.9c0,0-5.9,14-5.3,21.9c0.4,5.6,2.6,9.7,5.3,12.2c0.9,0.6,2.6,0.7,4.4,0.7
		c2.1,0,3.1-1.6,3.1-2.4s-1-1.6-2.6-1.6c-2.5,0-2.8-1.6-2.8-2.3s0.4-1.7,1.9-1.9c2.9-0.5,5.1,0.3,7.1,2.4c4.2,4.4,3.1,10.2,2.9,12
		c-0.2,1.5-0.4,1.9-1.3,2.2c-0.1,0.1-0.2,0.1-0.4,0.2c-0.2,0-0.2,0.1-0.4,0.1c-1.9,0.4-10.3,2.1-15.8,0.7c-6.3-1.6-13.3-6.9-14.6-14
		c-2.6-14.8,3.9-34.2,3.9-34.2s-13.6,20.2-12,39s10.7,23.9,12.1,27.6c0,0-25.7-12.4-32.6-67.4c0,0-4.5,26.7-0.2,47.2
		c0,0-17.2-13.4-13.2-80.4c0,0-8.3,14-13.2,31.6c0,0,1.6-31,5.1-41.3c4.5-13.2,35.2-45.6,41.9-50.2c0,0-12.9-22-32.8-38.3
		c0,0-3.3,18.6,1.1,40.7L30.2,89.3c0,0-5.9-55.7,5.3-72.5c0,0,34.3,32.3,47,50.9c0,0,13.9-4.3,34.9-4.3c0.1,0,0.2,0,0.3,0
		c0,0,0,0,0,0c0,0,0,0,0,0c0.1,0,0.2,0,0.3,0c21,0,34.9,4.3,34.9,4.3c12.8-18.6,47-50.9,47-50.9c11.1,16.8,5.3,72.5,5.3,72.5
		l-11.4-12.5C198.3,54.6,195,36,195,36c-19.9,16.3-32.8,38.3-32.8,38.3c6.7,4.7,37.5,37.1,41.9,50.2c3.5,10.3,5.1,41.3,5.1,41.3
		C204.3,148.2,196,134.2,196,134.2z"/>
</g>
</svg>
